<?xml version="1.0" standalone="no"?>
<!DOCTYPE svg PUBLIC "-//W3C//DTD SVG 20010904//EN" "http://www.w3.org/TR/2001/REC-SVG-20010904/DTD/svg10.dtd">
<!-- Created using Krita: http://krita.org -->
<svg xmlns="http://www.w3.org/2000/svg" 
    xmlns:xlink="http://www.w3.org/1999/xlink"
    xmlns:krita="http://krita.org/namespaces/svg/krita"
    xmlns:sodipodi="http://sodipodi.sourceforge.net/DTD/sodipodi-0.dtd"
    width="898.56pt"
    height="769.68pt"
    viewBox="0 0 898.56 769.68">
<defs>
  <radialGradient id="gradient0" gradientUnits="objectBoundingBox" cx="0.36126953777" cy="0.61720957912" fx="0.13755770707" fy="0.23500994579" r="0.44330167962" spreadMethod="pad">
   <stop stop-color="#f8e4c7" offset="0" stop-opacity="0.10196078431"/>
   <stop stop-color="#f5f3db" offset="1" stop-opacity="0.18823529412"/>
  </radialGradient>
  <radialGradient id="gradient1" gradientUnits="objectBoundingBox" cx="0.36126953777" cy="0.61720957912" fx="0.13755770707" fy="0.23500994579" r="0.44330167962" spreadMethod="pad">
   <stop stop-color="#f8e4c7" offset="0" stop-opacity="0.10196078431"/>
   <stop stop-color="#f5f3db" offset="1" stop-opacity="0.18823529412"/>
  </radialGradient>
  <radialGradient id="gradient2" gradientUnits="objectBoundingBox" cx="0.36126953777" cy="0.61720957912" fx="0.13755770707" fy="0.23500994579" r="0.44330167962" spreadMethod="pad">
   <stop stop-color="#f8e4c7" offset="0" stop-opacity="0.10196078431"/>
   <stop stop-color="#f5f3db" offset="1" stop-opacity="0.18823529412"/>
  </radialGradient>
  <radialGradient id="gradient3" gradientUnits="objectBoundingBox" cx="0.36126953777" cy="0.61720957912" fx="0.13755770707" fy="0.23500994579" r="0.44330167962" spreadMethod="pad">
   <stop stop-color="#f8e4c7" offset="0" stop-opacity="0.10196078431"/>
   <stop stop-color="#f5f3db" offset="1" stop-opacity="0.18823529412"/>
  </radialGradient>
  <radialGradient id="gradient4" gradientUnits="objectBoundingBox" cx="0.36126953777" cy="0.61720957912" fx="0.13755770707" fy="0.23500994579" r="0.44330167962" spreadMethod="pad">
   <stop stop-color="#f8e4c7" offset="0" stop-opacity="0.10196078431"/>
   <stop stop-color="#f5f3db" offset="1" stop-opacity="0.18823529412"/>
  </radialGradient>
  <radialGradient id="gradient5" gradientUnits="objectBoundingBox" cx="0.36126953777" cy="0.61720957912" fx="0.13755770707" fy="0.23500994579" r="0.44330167962" spreadMethod="pad">
   <stop stop-color="#f8e4c7" offset="0" stop-opacity="0.10196078431"/>
   <stop stop-color="#f5f3db" offset="1" stop-opacity="0.18823529412"/>
  </radialGradient>
  <radialGradient id="gradient6" gradientUnits="objectBoundingBox" cx="0.36126953777" cy="0.61720957912" fx="0.13755770707" fy="0.23500994579" r="0.44330167962" spreadMethod="pad">
   <stop stop-color="#f8e4c7" offset="0" stop-opacity="0.10196078431"/>
   <stop stop-color="#f5f3db" offset="1" stop-opacity="0.18823529412"/>
  </radialGradient>
  <radialGradient id="gradient7" gradientUnits="objectBoundingBox" cx="0.36126953777" cy="0.61720957912" fx="0.13755770707" fy="0.23500994579" r="0.44330167962" spreadMethod="pad">
   <stop stop-color="#f8e4c7" offset="0" stop-opacity="0.10196078431"/>
   <stop stop-color="#f5f3db" offset="1" stop-opacity="0.18823529412"/>
  </radialGradient>
 </defs>
<path id="shape0" transform="matrix(1.0877837822 0.51267916989 -0.51267916989 1.0877837822 431.0833668 223.74640038)" fill="#f0ecdf" fill-rule="evenodd" stroke="#000000" stroke-opacity="0" stroke-width="9.9216" stroke-linecap="square" stroke-linejoin="bevel" d="M140.706 24.8461L652.486 0L548.68 231.729L0 245.12Z"/><path id="shape0" transform="matrix(1.0877837719 0.51267919169 -0.51267916505 1.0877838284 406.069815 -9.8187304594)" fill="#f7f1e2" fill-rule="evenodd" stroke="#000000" stroke-opacity="0" stroke-width="9.9216" stroke-linecap="square" stroke-linejoin="bevel" d="M3.41421 218.471L0 102.239L72.6772 0L152.761 0.0256801M152.761 0.0256801L241.096 190.947L95.9708 418.487L3.41421 218.471"/><path id="shape01" transform="matrix(1.0877837719 0.51267919169 -0.51267916505 1.0877838284 597.9534422 -3.0920776861)" fill="#d2cec3" fill-rule="evenodd" stroke="#000000" stroke-opacity="0" stroke-width="9.9216" stroke-linecap="square" stroke-linejoin="bevel" d="M0 59.7959L505.125 0L608.62 229.207L95.6035 254.636Z"/><path id="shape1" transform="matrix(1.2025445888 0 0 1.2025445888 661.35732987 170.45881577)" fill="#efe8f3" fill-rule="evenodd" stroke="#000000" stroke-opacity="0" stroke-width="9.9216" stroke-linecap="square" stroke-linejoin="bevel" d="M0 0L29.3135 13.8001L30.6789 104.937L0 90Z"/><path id="shape02" transform="matrix(1.2025446199 0 0 1.2025446123 602.94713855 148.61029742)" fill="#efe8f3" fill-rule="evenodd" stroke="#000000" stroke-opacity="0" stroke-width="9.9216" stroke-linecap="square" stroke-linejoin="bevel" d="M0 0L29.3135 13.8001L30.6789 104.937L0 90Z"/><path id="shape03" transform="matrix(1.2025446199 0 0 1.2025446123 718.87665202 198.39676409)" fill="#efe8f3" fill-rule="evenodd" stroke="#000000" stroke-opacity="0" stroke-width="9.9216" stroke-linecap="square" stroke-linejoin="bevel" d="M0 0L29.3135 13.8001L30.6789 104.937L0 90Z"/><path id="shape04" transform="matrix(1.2025446199 0 0 1.2025446123 776.39594893 224.69129982)" fill="#efe8f3" fill-rule="evenodd" stroke="#000000" stroke-opacity="0" stroke-width="9.9216" stroke-linecap="square" stroke-linejoin="bevel" d="M0 0L29.3135 13.8001L30.6789 104.937L0 90Z"/><path id="shape05" transform="matrix(1.2025446199 0 0 1.2025446123 889.79113425 262.48969493)" fill="#efe8f3" fill-rule="evenodd" stroke="#000000" stroke-opacity="0" stroke-width="9.9216" stroke-linecap="square" stroke-linejoin="bevel" d="M0 0L29.3135 13.8001L30.6789 104.937L0 90Z"/><path id="shape06" transform="matrix(1.2025446199 0 0 1.2025446123 939.09338874 278.92377976)" fill="#efe8f3" fill-rule="evenodd" stroke="#000000" stroke-opacity="0" stroke-width="9.9216" stroke-linecap="square" stroke-linejoin="bevel" d="M0 0L29.3135 13.8001L30.6789 104.937L0 90Z"/><path id="shape07" transform="matrix(1.2025446199 0 0 1.2025446123 991.68246019 301.93149852)" fill="#efe8f3" fill-rule="evenodd" stroke="#000000" stroke-opacity="0" stroke-width="9.9216" stroke-linecap="square" stroke-linejoin="bevel" d="M0 0L29.3135 13.8001L30.6789 104.937L0 90Z"/><path id="shape08" transform="matrix(1.2025446199 0 0 1.2025446123 1054.1319825 329.86944273)" fill="#efe8f3" fill-rule="evenodd" stroke="#000000" stroke-opacity="0" stroke-width="9.9216" stroke-linecap="square" stroke-linejoin="bevel" d="M0 0L29.3135 13.8001L30.6789 104.937L0 90Z"/><path id="shape09" transform="matrix(1.2025446323 0 0 1.2025446229 409.21445443 148.88965941)" fill="url(#gradient0)" fill-rule="evenodd" stroke="#000000" stroke-opacity="0" stroke-width="9.9216" stroke-linecap="square" stroke-linejoin="bevel" d="M161.948 0C171.518 4.65 181.088 9.3 190.658 13.95L191.325 105.512C179.886 118.571 151.742 162.45 106.892 237.15L39.7414 283.469L0 261.305Z"/><path id="shape010" transform="matrix(1.202544628 0 0 1.2025445908 466.81107831 171.67790562)" fill="url(#gradient1)" fill-rule="evenodd" stroke="#000000" stroke-opacity="0" stroke-width="9.9216" stroke-linecap="square" stroke-linejoin="bevel" d="M161.948 0L190.658 13.95L191.325 105.512C179.886 118.571 151.742 162.45 106.892 237.15L39.7414 283.469L0 261.305Z"/><path id="shape011" transform="matrix(1.202544628 0 0 1.2025445908 525.68766086 197.65286851)" fill="url(#gradient2)" fill-rule="evenodd" stroke="#000000" stroke-opacity="0" stroke-width="9.9216" stroke-linecap="square" stroke-linejoin="bevel" d="M161.948 0L190.658 13.95L191.325 105.512C179.886 118.571 151.742 162.45 106.892 237.15L39.7414 283.469L0 261.305Z"/><path id="shape012" transform="matrix(1.202544628 0 0 1.2025445908 581.96224143 224.34519611)" fill="url(#gradient3)" fill-rule="evenodd" stroke="#000000" stroke-opacity="0" stroke-width="9.9216" stroke-linecap="square" stroke-linejoin="bevel" d="M161.948 0L190.658 13.95L191.325 105.512C179.886 118.571 151.742 162.45 106.892 237.15L39.7414 283.469L0 261.305Z"/><path id="shape013" transform="matrix(1.202544628 0 0 1.2025445908 695.39075653 279.04108764)" fill="url(#gradient4)" fill-rule="evenodd" stroke="#000000" stroke-opacity="0" stroke-width="9.9216" stroke-linecap="square" stroke-linejoin="bevel" d="M161.948 0L190.658 13.95L191.325 105.512C179.886 118.571 151.742 162.45 106.892 237.15L39.7414 283.469L0 261.305Z"/><path id="shape014" transform="matrix(1.2025445663 0 0 1.2025445908 743.46317709 278.45187136)" fill="url(#gradient5)" fill-rule="evenodd" stroke="#000000" stroke-opacity="0" stroke-width="9.9216" stroke-linecap="square" stroke-linejoin="bevel" d="M161.948 0L190.658 13.95L191.325 105.512C179.886 118.571 151.742 162.45 106.892 237.15L39.7414 283.469L0 261.305Z"/><path id="shape015" transform="matrix(1.2025445663 0 0 1.2025445908 798.01060078 303.56100289)" fill="url(#gradient6)" fill-rule="evenodd" stroke="#000000" stroke-opacity="0" stroke-width="9.9216" stroke-linecap="square" stroke-linejoin="bevel" d="M161.948 0L190.658 13.95L191.325 105.512C179.886 118.571 151.742 162.45 106.892 237.15L39.7414 283.469L0 261.305Z"/><path id="shape016" transform="matrix(1.2025445663 0 0 1.2025445908 858.61884932 329.53596656)" fill="url(#gradient7)" fill-rule="evenodd" stroke="#000000" stroke-opacity="0" stroke-width="9.9216" stroke-linecap="square" stroke-linejoin="bevel" d="M161.948 0L190.658 13.95L191.325 105.512C179.886 118.571 151.742 162.45 106.892 237.15L39.7414 283.469L0 261.305Z"/><path id="shape2" transform="matrix(1.2025445888 0 0 1.2025445888 377.54922492 192.72239145)" fill="#fbf8f0" fill-rule="evenodd" stroke="#000000" stroke-opacity="0" stroke-width="9.9216" stroke-linecap="square" stroke-linejoin="bevel" d="M0 62.64L106.92 0L106.92 72.36L3.24 137.16Z"/>
</svg>
